<?xml version="1.0" encoding="UTF-8" standalone="no"?>
<!DOCTYPE svg PUBLIC "-//W3C//DTD SVG 1.1//EN"
 "http://www.w3.org/Graphics/SVG/1.1/DTD/svg11.dtd">
<!-- Generated by graphviz version 2.40.1 (0)
 -->
<!-- Title: G Pages: 1 -->
<svg width="1313pt" height="297pt"
 viewBox="0.00 0.00 1312.53 296.72" xmlns="http://www.w3.org/2000/svg" xmlns:xlink="http://www.w3.org/1999/xlink">
<g id="graph0" class="graph" transform="scale(1 1) rotate(0) translate(4 292.72)">
<title>G</title>
<polygon fill="#ffffff" stroke="transparent" points="-4,4 -4,-292.72 1308.5334,-292.72 1308.5334,4 -4,4"/>
<!-- m1 -->
<g id="node1" class="node">
<title>m1</title>
<ellipse fill="#000000" stroke="#000000" cx="601.4913" cy="-216.36" rx=".36" ry=".36"/>
</g>
<!-- DateTime -->
<g id="node4" class="node">
<title>DateTime</title>
<ellipse fill="none" stroke="#000000" cx="601.4913" cy="-162" rx="55.7903" ry="18"/>
<text text-anchor="middle" x="601.4913" y="-158.3" font-family="Times-Roman" font-size="14.00" fill="#000000">DateTime</text>
</g>
<!-- m1&#45;&gt;DateTime -->
<g id="edge3" class="edge">
<title>m1&#45;&gt;DateTime</title>
<path fill="none" stroke="#000000" d="M601.4913,-215.7495C601.4913,-213.0703 601.4913,-201.9779 601.4913,-190.5599"/>
<polygon fill="#000000" stroke="#000000" points="604.9914,-190.2145 601.4913,-180.2145 597.9914,-190.2145 604.9914,-190.2145"/>
</g>
<!-- Time.Posix -->
<g id="node2" class="node">
<title>Time.Posix</title>
<ellipse fill="none" stroke="#000000" cx="532.4913" cy="-270.72" rx="59.5901" ry="18"/>
<text text-anchor="middle" x="532.4913" y="-267.02" font-family="Times-Roman" font-size="14.00" fill="#000000">Time.Posix</text>
</g>
<!-- Time.Posix&#45;&gt;m1 -->
<g id="edge1" class="edge">
<title>Time.Posix&#45;&gt;m1</title>
<path fill="none" stroke="#000000" d="M553.9452,-253.8181C572.9343,-238.858 598.1074,-219.0259 601.1799,-216.6054"/>
</g>
<!-- Time.Zone -->
<g id="node3" class="node">
<title>Time.Zone</title>
<ellipse fill="none" stroke="#000000" cx="670.4913" cy="-270.72" rx="60.3893" ry="18"/>
<text text-anchor="middle" x="670.4913" y="-267.02" font-family="Times-Roman" font-size="14.00" fill="#000000">Time.Zone</text>
</g>
<!-- Time.Zone&#45;&gt;m1 -->
<g id="edge2" class="edge">
<title>Time.Zone&#45;&gt;m1</title>
<path fill="none" stroke="#000000" d="M649.0375,-253.8181C630.0484,-238.858 604.8753,-219.0259 601.8028,-216.6054"/>
</g>
<!-- Calendar.Date -->
<g id="node5" class="node">
<title>Calendar.Date</title>
<ellipse fill="none" stroke="#000000" cx="441.4913" cy="-90" rx="77.1866" ry="18"/>
<text text-anchor="middle" x="441.4913" y="-86.3" font-family="Times-Roman" font-size="14.00" fill="#000000">Calendar.Date</text>
</g>
<!-- DateTime&#45;&gt;Calendar.Date -->
<g id="edge4" class="edge">
<title>DateTime&#45;&gt;Calendar.Date</title>
<path fill="none" stroke="#000000" d="M568.7269,-147.256C545.0318,-136.5932 512.7234,-122.0544 486.5932,-110.2958"/>
<polygon fill="#000000" stroke="#000000" points="487.8287,-107.0138 477.2732,-106.1018 484.9561,-113.3973 487.8287,-107.0138"/>
</g>
<!-- Clock.Time -->
<g id="node6" class="node">
<title>Clock.Time</title>
<ellipse fill="none" stroke="#000000" cx="875.4913" cy="-90" rx="61.99" ry="18"/>
<text text-anchor="middle" x="875.4913" y="-86.3" font-family="Times-Roman" font-size="14.00" fill="#000000">Clock.Time</text>
</g>
<!-- DateTime&#45;&gt;Clock.Time -->
<g id="edge5" class="edge">
<title>DateTime&#45;&gt;Clock.Time</title>
<path fill="none" stroke="#000000" d="M644.9075,-150.5914C692.2563,-138.1493 768.1729,-118.2005 819.8586,-104.6188"/>
<polygon fill="#000000" stroke="#000000" points="820.7537,-108.0025 829.5358,-102.0759 818.9746,-101.2324 820.7537,-108.0025"/>
</g>
<!-- Calendar.Year.Year -->
<g id="node7" class="node">
<title>Calendar.Year.Year</title>
<ellipse fill="none" stroke="#000000" cx="97.4913" cy="-18" rx="97.4827" ry="18"/>
<text text-anchor="middle" x="97.4913" y="-14.3" font-family="Times-Roman" font-size="14.00" fill="#000000">Calendar.Year.Year</text>
</g>
<!-- Calendar.Date&#45;&gt;Calendar.Year.Year -->
<g id="edge6" class="edge">
<title>Calendar.Date&#45;&gt;Calendar.Year.Year</title>
<path fill="none" stroke="#000000" d="M383.9135,-77.9488C325.7255,-65.7699 235.5626,-46.8986 171.9668,-33.5879"/>
<polygon fill="#000000" stroke="#000000" points="172.5021,-30.1242 161.9972,-31.5012 171.068,-36.9757 172.5021,-30.1242"/>
</g>
<!-- Calendar.Month.Month -->
<g id="node8" class="node">
<title>Calendar.Month.Month</title>
<ellipse fill="none" stroke="#000000" cx="328.4913" cy="-18" rx="115.0796" ry="18"/>
<text text-anchor="middle" x="328.4913" y="-14.3" font-family="Times-Roman" font-size="14.00" fill="#000000">Calendar.Month.Month</text>
</g>
<!-- Calendar.Date&#45;&gt;Calendar.Month.Month -->
<g id="edge7" class="edge">
<title>Calendar.Date&#45;&gt;Calendar.Month.Month</title>
<path fill="none" stroke="#000000" d="M414.7119,-72.937C399.8438,-63.4635 381.137,-51.5441 364.9511,-41.231"/>
<polygon fill="#000000" stroke="#000000" points="366.5729,-38.1143 356.2586,-35.6924 362.8114,-44.0178 366.5729,-38.1143"/>
</g>
<!-- Calendar.Day.Day -->
<g id="node9" class="node">
<title>Calendar.Day.Day</title>
<ellipse fill="none" stroke="#000000" cx="554.4913" cy="-18" rx="92.8835" ry="18"/>
<text text-anchor="middle" x="554.4913" y="-14.3" font-family="Times-Roman" font-size="14.00" fill="#000000">Calendar.Day.Day</text>
</g>
<!-- Calendar.Date&#45;&gt;Calendar.Day.Day -->
<g id="edge8" class="edge">
<title>Calendar.Date&#45;&gt;Calendar.Day.Day</title>
<path fill="none" stroke="#000000" d="M468.2708,-72.937C483.2491,-63.3933 502.1231,-51.3674 518.3909,-41.002"/>
<polygon fill="#000000" stroke="#000000" points="520.5664,-43.766 527.1192,-35.4407 516.8049,-37.8626 520.5664,-43.766"/>
</g>
<!-- Clock.Hour -->
<g id="node10" class="node">
<title>Clock.Hour</title>
<ellipse fill="none" stroke="#000000" cx="726.4913" cy="-18" rx="61.1893" ry="18"/>
<text text-anchor="middle" x="726.4913" y="-14.3" font-family="Times-Roman" font-size="14.00" fill="#000000">Clock.Hour</text>
</g>
<!-- Clock.Time&#45;&gt;Clock.Hour -->
<g id="edge9" class="edge">
<title>Clock.Time&#45;&gt;Clock.Hour</title>
<path fill="none" stroke="#000000" d="M843.5271,-74.5542C821.3333,-63.8297 791.5654,-49.4452 767.6058,-37.8674"/>
<polygon fill="#000000" stroke="#000000" points="768.9294,-34.6198 758.4027,-33.4203 765.8838,-40.9225 768.9294,-34.6198"/>
</g>
<!-- Clock.Minute -->
<g id="node11" class="node">
<title>Clock.Minute</title>
<ellipse fill="none" stroke="#000000" cx="875.4913" cy="-18" rx="69.5877" ry="18"/>
<text text-anchor="middle" x="875.4913" y="-14.3" font-family="Times-Roman" font-size="14.00" fill="#000000">Clock.Minute</text>
</g>
<!-- Clock.Time&#45;&gt;Clock.Minute -->
<g id="edge10" class="edge">
<title>Clock.Time&#45;&gt;Clock.Minute</title>
<path fill="none" stroke="#000000" d="M875.4913,-71.8314C875.4913,-64.131 875.4913,-54.9743 875.4913,-46.4166"/>
<polygon fill="#000000" stroke="#000000" points="878.9914,-46.4132 875.4913,-36.4133 871.9914,-46.4133 878.9914,-46.4132"/>
</g>
<!-- Clock.Second -->
<g id="node12" class="node">
<title>Clock.Second</title>
<ellipse fill="none" stroke="#000000" cx="1035.4913" cy="-18" rx="72.5877" ry="18"/>
<text text-anchor="middle" x="1035.4913" y="-14.3" font-family="Times-Roman" font-size="14.00" fill="#000000">Clock.Second</text>
</g>
<!-- Clock.Time&#45;&gt;Clock.Second -->
<g id="edge11" class="edge">
<title>Clock.Time&#45;&gt;Clock.Second</title>
<path fill="none" stroke="#000000" d="M909.4232,-74.7307C933.1975,-64.0322 965.2058,-49.6285 991.0203,-38.012"/>
<polygon fill="#000000" stroke="#000000" points="992.541,-41.1658 1000.224,-33.8703 989.6684,-34.7823 992.541,-41.1658"/>
</g>
<!-- Clock.Millisecond -->
<g id="node13" class="node">
<title>Clock.Millisecond</title>
<ellipse fill="none" stroke="#000000" cx="1215.4913" cy="-18" rx="89.0842" ry="18"/>
<text text-anchor="middle" x="1215.4913" y="-14.3" font-family="Times-Roman" font-size="14.00" fill="#000000">Clock.Millisecond</text>
</g>
<!-- Clock.Time&#45;&gt;Clock.Millisecond -->
<g id="edge12" class="edge">
<title>Clock.Time&#45;&gt;Clock.Millisecond</title>
<path fill="none" stroke="#000000" d="M925.6595,-79.3762C983.3772,-67.1536 1078.5908,-46.9907 1144.0389,-33.1311"/>
<polygon fill="#000000" stroke="#000000" points="1144.8158,-36.5443 1153.8737,-31.0484 1143.3656,-29.6962 1144.8158,-36.5443"/>
</g>
</g>
</svg>
