<?xml version="1.0" encoding="UTF-8" standalone="no"?>
<!DOCTYPE svg PUBLIC "-//W3C//DTD SVG 1.1//EN"
 "http://www.w3.org/Graphics/SVG/1.1/DTD/svg11.dtd">
<!-- Generated by graphviz version 2.40.1 (0)
 -->
<!-- Title: G Pages: 1 -->
<svg width="938pt" height="613pt"
 viewBox="0.00 0.00 938.00 612.72" xmlns="http://www.w3.org/2000/svg" xmlns:xlink="http://www.w3.org/1999/xlink">
<g id="graph0" class="graph" transform="scale(1 1) rotate(0) translate(4 608.72)">
<title>G</title>
<polygon fill="#ffffff" stroke="transparent" points="-4,4 -4,-608.72 934,-608.72 934,4 -4,4"/>
<!-- m1 -->
<g id="node1" class="node">
<title>m1</title>
<ellipse fill="#000000" stroke="#000000" cx="397" cy="-453.36" rx=".36" ry=".36"/>
</g>
<!-- DateTime -->
<g id="node4" class="node">
<title>DateTime</title>
<ellipse fill="none" stroke="#000000" cx="397" cy="-356" rx="54" ry="54"/>
<text text-anchor="middle" x="397" y="-352.3" font-family="Times-Roman" font-size="14.00" fill="#000000">DateTime</text>
</g>
<!-- m1&#45;&gt;DateTime -->
<g id="edge3" class="edge">
<title>m1&#45;&gt;DateTime</title>
<path fill="none" stroke="#000000" d="M397,-452.7383C397,-449.7475 397,-436.329 397,-420.3942"/>
<polygon fill="#000000" stroke="#000000" points="400.5001,-420.218 397,-410.218 393.5001,-420.2181 400.5001,-420.218"/>
</g>
<!-- Zone -->
<g id="node2" class="node">
<title>Zone</title>
<ellipse fill="none" stroke="#000000" cx="329" cy="-550.72" rx="54" ry="54"/>
<text text-anchor="middle" x="329" y="-547.02" font-family="Times-Roman" font-size="14.00" fill="#000000">Zone</text>
</g>
<!-- Zone&#45;&gt;m1 -->
<g id="edge1" class="edge">
<title>Zone&#45;&gt;m1</title>
<path fill="none" stroke="#000000" d="M360.0151,-506.3136C376.8286,-482.2408 394.623,-456.7632 396.7817,-453.6726"/>
</g>
<!-- Posix -->
<g id="node3" class="node">
<title>Posix</title>
<ellipse fill="none" stroke="#000000" cx="466" cy="-550.72" rx="54" ry="54"/>
<text text-anchor="middle" x="466" y="-547.02" font-family="Times-Roman" font-size="14.00" fill="#000000">Posix</text>
</g>
<!-- Posix&#45;&gt;m1 -->
<g id="edge2" class="edge">
<title>Posix&#45;&gt;m1</title>
<path fill="none" stroke="#000000" d="M434.7302,-506.5978C417.6147,-482.4476 399.4294,-456.788 397.2232,-453.6749"/>
</g>
<!-- Date -->
<g id="node5" class="node">
<title>Date</title>
<ellipse fill="none" stroke="#000000" cx="260" cy="-205" rx="54" ry="54"/>
<text text-anchor="middle" x="260" y="-201.3" font-family="Times-Roman" font-size="14.00" fill="#000000">Date</text>
</g>
<!-- DateTime&#45;&gt;Date -->
<g id="edge4" class="edge">
<title>DateTime&#45;&gt;Date</title>
<path fill="none" stroke="#000000" d="M360.6462,-315.9312C343.0031,-296.4851 321.6803,-272.9834 303.211,-252.6267"/>
<polygon fill="#000000" stroke="#000000" points="305.5973,-250.0481 296.2858,-244.9938 300.4131,-254.7517 305.5973,-250.0481"/>
</g>
<!-- Time -->
<g id="node6" class="node">
<title>Time</title>
<ellipse fill="none" stroke="#000000" cx="602" cy="-205" rx="54" ry="54"/>
<text text-anchor="middle" x="602" y="-201.3" font-family="Times-Roman" font-size="14.00" fill="#000000">Time</text>
</g>
<!-- DateTime&#45;&gt;Time -->
<g id="edge5" class="edge">
<title>DateTime&#45;&gt;Time</title>
<path fill="none" stroke="#000000" d="M440.7262,-323.7919C472.7053,-300.2366 516.2125,-268.1898 549.9791,-243.3178"/>
<polygon fill="#000000" stroke="#000000" points="552.3652,-245.9073 558.341,-237.1586 548.2137,-240.2712 552.3652,-245.9073"/>
</g>
<!-- Year -->
<g id="node7" class="node">
<title>Year</title>
<ellipse fill="none" stroke="#000000" cx="54" cy="-54" rx="54" ry="54"/>
<text text-anchor="middle" x="54" y="-50.3" font-family="Times-Roman" font-size="14.00" fill="#000000">Year</text>
</g>
<!-- Date&#45;&gt;Year -->
<g id="edge6" class="edge">
<title>Date&#45;&gt;Year</title>
<path fill="none" stroke="#000000" d="M215.0906,-174.4178C187.8728,-155.6408 152.6098,-130.8812 122,-108 116.1891,-103.6563 110.1599,-99.0374 104.1998,-94.4002"/>
<polygon fill="#000000" stroke="#000000" points="106.1731,-91.5001 96.1422,-88.0897 101.857,-97.0111 106.1731,-91.5001"/>
</g>
<!-- Month -->
<g id="node8" class="node">
<title>Month</title>
<ellipse fill="none" stroke="#000000" cx="191" cy="-54" rx="54" ry="54"/>
<text text-anchor="middle" x="191" y="-50.3" font-family="Times-Roman" font-size="14.00" fill="#000000">Month</text>
</g>
<!-- Date&#45;&gt;Month -->
<g id="edge7" class="edge">
<title>Date&#45;&gt;Month</title>
<path fill="none" stroke="#000000" d="M237.4068,-155.557C231.1198,-141.7984 224.2315,-126.7241 217.7313,-112.499"/>
<polygon fill="#000000" stroke="#000000" points="220.8657,-110.9368 213.526,-103.2961 214.4989,-113.8462 220.8657,-110.9368"/>
</g>
<!-- Day -->
<g id="node9" class="node">
<title>Day</title>
<ellipse fill="none" stroke="#000000" cx="328" cy="-54" rx="54" ry="54"/>
<text text-anchor="middle" x="328" y="-50.3" font-family="Times-Roman" font-size="14.00" fill="#000000">Day</text>
</g>
<!-- Date&#45;&gt;Day -->
<g id="edge8" class="edge">
<title>Date&#45;&gt;Day</title>
<path fill="none" stroke="#000000" d="M282.2657,-155.557C288.4616,-141.7984 295.2501,-126.7241 301.6561,-112.499"/>
<polygon fill="#000000" stroke="#000000" points="304.8855,-113.8514 305.8004,-103.2961 298.5029,-110.977 304.8855,-113.8514"/>
</g>
<!-- Hour -->
<g id="node10" class="node">
<title>Hour</title>
<ellipse fill="none" stroke="#000000" cx="465" cy="-54" rx="54" ry="54"/>
<text text-anchor="middle" x="465" y="-50.3" font-family="Times-Roman" font-size="14.00" fill="#000000">Hour</text>
</g>
<!-- Time&#45;&gt;Hour -->
<g id="edge9" class="edge">
<title>Time&#45;&gt;Hour</title>
<path fill="none" stroke="#000000" d="M565.6462,-164.9312C548.0031,-145.4851 526.6803,-121.9834 508.211,-101.6267"/>
<polygon fill="#000000" stroke="#000000" points="510.5973,-99.0481 501.2858,-93.9938 505.4131,-103.7517 510.5973,-99.0481"/>
</g>
<!-- Minute -->
<g id="node11" class="node">
<title>Minute</title>
<ellipse fill="none" stroke="#000000" cx="602" cy="-54" rx="54" ry="54"/>
<text text-anchor="middle" x="602" y="-50.3" font-family="Times-Roman" font-size="14.00" fill="#000000">Minute</text>
</g>
<!-- Time&#45;&gt;Minute -->
<g id="edge10" class="edge">
<title>Time&#45;&gt;Minute</title>
<path fill="none" stroke="#000000" d="M602,-150.912C602,-140.3948 602,-129.2732 602,-118.4604"/>
<polygon fill="#000000" stroke="#000000" points="605.5001,-118.2178 602,-108.2178 598.5001,-118.2179 605.5001,-118.2178"/>
</g>
<!-- Second -->
<g id="node12" class="node">
<title>Second</title>
<ellipse fill="none" stroke="#000000" cx="739" cy="-54" rx="54" ry="54"/>
<text text-anchor="middle" x="739" y="-50.3" font-family="Times-Roman" font-size="14.00" fill="#000000">Second</text>
</g>
<!-- Time&#45;&gt;Second -->
<g id="edge11" class="edge">
<title>Time&#45;&gt;Second</title>
<path fill="none" stroke="#000000" d="M638.3538,-164.9312C655.9969,-145.4851 677.3197,-121.9834 695.789,-101.6267"/>
<polygon fill="#000000" stroke="#000000" points="698.5869,-103.7517 702.7142,-93.9938 693.4027,-99.0481 698.5869,-103.7517"/>
</g>
<!-- Millisecond -->
<g id="node13" class="node">
<title>Millisecond</title>
<ellipse fill="none" stroke="#000000" cx="876" cy="-54" rx="54" ry="54"/>
<text text-anchor="middle" x="876" y="-50.3" font-family="Times-Roman" font-size="14.00" fill="#000000">Millisecond</text>
</g>
<!-- Time&#45;&gt;Millisecond -->
<g id="edge12" class="edge">
<title>Time&#45;&gt;Millisecond</title>
<path fill="none" stroke="#000000" d="M652.3691,-185.1448C695.1438,-167.389 757.4558,-139.3804 808,-108 814.1636,-104.1733 820.413,-99.877 826.498,-95.4229"/>
<polygon fill="#000000" stroke="#000000" points="828.7793,-98.0867 834.6704,-89.2806 824.5736,-92.4909 828.7793,-98.0867"/>
</g>
</g>
</svg>
