<?xml version="1.0" encoding="UTF-8" standalone="no"?>
<!DOCTYPE svg PUBLIC "-//W3C//DTD SVG 1.1//EN"
 "http://www.w3.org/Graphics/SVG/1.1/DTD/svg11.dtd">
<!-- Generated by graphviz version 2.40.1 (0)
 -->
<!-- Title: G Pages: 1 -->
<svg width="1177pt" height="729pt"
 viewBox="0.00 0.00 1176.87 728.72" xmlns="http://www.w3.org/2000/svg" xmlns:xlink="http://www.w3.org/1999/xlink">
<g id="graph0" class="graph" transform="scale(1 1) rotate(0) translate(4 724.72)">
<title>G</title>
<polygon fill="#ffffff" stroke="transparent" points="-4,4 -4,-724.72 1172.8691,-724.72 1172.8691,4 -4,4"/>
<!-- m1 -->
<g id="node1" class="node">
<title>m1</title>
<ellipse fill="#000000" stroke="#000000" cx="533.7609" cy="-540.36" rx=".36" ry=".36"/>
</g>
<!-- DateTime -->
<g id="node4" class="node">
<title>DateTime</title>
<ellipse fill="none" stroke="#000000" cx="533.7609" cy="-414" rx="54" ry="54"/>
<text text-anchor="middle" x="533.7609" y="-410.3" font-family="Times-Roman" font-size="14.00" fill="#000000">DateTime</text>
</g>
<!-- m1&#45;&gt;DateTime -->
<g id="edge3" class="edge">
<title>m1&#45;&gt;DateTime</title>
<path fill="none" stroke="#000000" d="M533.7609,-539.9975C533.7609,-536.4624 533.7609,-507.6355 533.7609,-478.4476"/>
<polygon fill="#000000" stroke="#000000" points="537.261,-478.1493 533.7609,-468.1494 530.261,-478.1494 537.261,-478.1493"/>
</g>
<!-- Time.Posix -->
<g id="node2" class="node">
<title>Time.Posix</title>
<ellipse fill="none" stroke="#000000" cx="461.7609" cy="-666.72" rx="54" ry="54"/>
<text text-anchor="middle" x="461.7609" y="-663.02" font-family="Times-Roman" font-size="14.00" fill="#000000">Time.Posix</text>
</g>
<!-- Time.Posix&#45;&gt;m1 -->
<g id="edge1" class="edge">
<title>Time.Posix&#45;&gt;m1</title>
<path fill="none" stroke="#000000" d="M488.571,-619.6682C507.7622,-585.9876 530.6876,-545.7537 533.4783,-540.856"/>
</g>
<!-- Time.Zone -->
<g id="node3" class="node">
<title>Time.Zone</title>
<ellipse fill="none" stroke="#000000" cx="605.7609" cy="-666.72" rx="54" ry="54"/>
<text text-anchor="middle" x="605.7609" y="-663.02" font-family="Times-Roman" font-size="14.00" fill="#000000">Time.Zone</text>
</g>
<!-- Time.Zone&#45;&gt;m1 -->
<g id="edge2" class="edge">
<title>Time.Zone&#45;&gt;m1</title>
<path fill="none" stroke="#000000" d="M578.9507,-619.6682C559.7595,-585.9876 536.8342,-545.7537 534.0435,-540.856"/>
</g>
<!-- Calendar.Date -->
<g id="node5" class="node">
<title>Calendar.Date</title>
<ellipse fill="none" stroke="#000000" cx="379.7609" cy="-234" rx="60.7941" ry="54"/>
<text text-anchor="middle" x="379.7609" y="-230.3" font-family="Times-Roman" font-size="14.00" fill="#000000">Calendar.Date</text>
</g>
<!-- DateTime&#45;&gt;Calendar.Date -->
<g id="edge4" class="edge">
<title>DateTime&#45;&gt;Calendar.Date</title>
<path fill="none" stroke="#000000" d="M498.4302,-372.7044C476.1085,-346.6141 447.1013,-312.7096 423.3534,-284.9523"/>
<polygon fill="#000000" stroke="#000000" points="425.9651,-282.6211 416.8046,-277.2979 420.6461,-287.1718 425.9651,-282.6211"/>
</g>
<!-- Clock.Time -->
<g id="node6" class="node">
<title>Clock.Time</title>
<ellipse fill="none" stroke="#000000" cx="787.7609" cy="-234" rx="54" ry="54"/>
<text text-anchor="middle" x="787.7609" y="-230.3" font-family="Times-Roman" font-size="14.00" fill="#000000">Clock.Time</text>
</g>
<!-- DateTime&#45;&gt;Clock.Time -->
<g id="edge5" class="edge">
<title>DateTime&#45;&gt;Clock.Time</title>
<path fill="none" stroke="#000000" d="M578.0043,-382.6464C621.7589,-351.6392 688.7258,-304.1823 735.175,-271.2656"/>
<polygon fill="#000000" stroke="#000000" points="737.4638,-273.9334 743.5991,-265.2958 733.4164,-268.2221 737.4638,-273.9334"/>
</g>
<!-- Calendar.Year.Year -->
<g id="node7" class="node">
<title>Calendar.Year.Year</title>
<ellipse fill="none" stroke="#000000" cx="76.7609" cy="-54" rx="76.5225" ry="54"/>
<text text-anchor="middle" x="76.7609" y="-50.3" font-family="Times-Roman" font-size="14.00" fill="#000000">Calendar.Year.Year</text>
</g>
<!-- Calendar.Date&#45;&gt;Calendar.Year.Year -->
<g id="edge6" class="edge">
<title>Calendar.Date&#45;&gt;Calendar.Year.Year</title>
<path fill="none" stroke="#000000" d="M329.0455,-203.872C278.3524,-173.7574 200.1071,-127.275 144.2034,-94.0649"/>
<polygon fill="#000000" stroke="#000000" points="145.8156,-90.9516 135.4306,-88.8533 142.2404,-96.9698 145.8156,-90.9516"/>
</g>
<!-- Calendar.Month.Month -->
<g id="node8" class="node">
<title>Calendar.Month.Month</title>
<ellipse fill="none" stroke="#000000" cx="279.7609" cy="-54" rx="90.6557" ry="54"/>
<text text-anchor="middle" x="279.7609" y="-50.3" font-family="Times-Roman" font-size="14.00" fill="#000000">Calendar.Month.Month</text>
</g>
<!-- Calendar.Date&#45;&gt;Calendar.Month.Month -->
<g id="edge7" class="edge">
<title>Calendar.Date&#45;&gt;Calendar.Month.Month</title>
<path fill="none" stroke="#000000" d="M352.6994,-185.2894C340.5462,-163.4135 326.0845,-137.3824 313.2556,-114.2905"/>
<polygon fill="#000000" stroke="#000000" points="316.1583,-112.3084 308.2423,-105.2666 310.0392,-115.7079 316.1583,-112.3084"/>
</g>
<!-- Calendar.Day.Day -->
<g id="node9" class="node">
<title>Calendar.Day.Day</title>
<ellipse fill="none" stroke="#000000" cx="479.7609" cy="-54" rx="73.3578" ry="54"/>
<text text-anchor="middle" x="479.7609" y="-50.3" font-family="Times-Roman" font-size="14.00" fill="#000000">Calendar.Day.Day</text>
</g>
<!-- Calendar.Date&#45;&gt;Calendar.Day.Day -->
<g id="edge8" class="edge">
<title>Calendar.Date&#45;&gt;Calendar.Day.Day</title>
<path fill="none" stroke="#000000" d="M406.8223,-185.2894C419.2345,-162.9474 434.0546,-136.2713 447.0839,-112.8186"/>
<polygon fill="#000000" stroke="#000000" points="450.1841,-114.445 451.9811,-104.0037 444.065,-111.0455 450.1841,-114.445"/>
</g>
<!-- Clock.Hour -->
<g id="node10" class="node">
<title>Clock.Hour</title>
<ellipse fill="none" stroke="#000000" cx="642.7609" cy="-54" rx="54" ry="54"/>
<text text-anchor="middle" x="642.7609" y="-50.3" font-family="Times-Roman" font-size="14.00" fill="#000000">Clock.Hour</text>
</g>
<!-- Clock.Time&#45;&gt;Clock.Hour -->
<g id="edge9" class="edge">
<title>Clock.Time&#45;&gt;Clock.Hour</title>
<path fill="none" stroke="#000000" d="M753.7648,-191.798C732.6613,-165.6006 705.4262,-131.7915 683.2149,-104.2188"/>
<polygon fill="#000000" stroke="#000000" points="685.7938,-101.841 676.7949,-96.2491 680.3425,-106.2323 685.7938,-101.841"/>
</g>
<!-- Clock.Minute -->
<g id="node11" class="node">
<title>Clock.Minute</title>
<ellipse fill="none" stroke="#000000" cx="787.7609" cy="-54" rx="54.5133" ry="54"/>
<text text-anchor="middle" x="787.7609" y="-50.3" font-family="Times-Roman" font-size="14.00" fill="#000000">Clock.Minute</text>
</g>
<!-- Clock.Time&#45;&gt;Clock.Minute -->
<g id="edge10" class="edge">
<title>Clock.Time&#45;&gt;Clock.Minute</title>
<path fill="none" stroke="#000000" d="M787.7609,-179.9941C787.7609,-160.5933 787.7609,-138.5208 787.7609,-118.3296"/>
<polygon fill="#000000" stroke="#000000" points="791.261,-118.2786 787.7609,-108.2787 784.261,-118.2787 791.261,-118.2786"/>
</g>
<!-- Clock.Second -->
<g id="node12" class="node">
<title>Clock.Second</title>
<ellipse fill="none" stroke="#000000" cx="935.7609" cy="-54" rx="57.1302" ry="54"/>
<text text-anchor="middle" x="935.7609" y="-50.3" font-family="Times-Roman" font-size="14.00" fill="#000000">Clock.Second</text>
</g>
<!-- Clock.Time&#45;&gt;Clock.Second -->
<g id="edge11" class="edge">
<title>Clock.Time&#45;&gt;Clock.Second</title>
<path fill="none" stroke="#000000" d="M822.087,-192.252C843.5378,-166.1632 871.3032,-132.3945 894.0233,-104.762"/>
<polygon fill="#000000" stroke="#000000" points="896.9455,-106.7188 900.5931,-96.7716 891.5385,-102.273 896.9455,-106.7188"/>
</g>
<!-- Clock.Millisecond -->
<g id="node13" class="node">
<title>Clock.Millisecond</title>
<ellipse fill="none" stroke="#000000" cx="1098.7609" cy="-54" rx="70.2167" ry="54"/>
<text text-anchor="middle" x="1098.7609" y="-50.3" font-family="Times-Roman" font-size="14.00" fill="#000000">Clock.Millisecond</text>
</g>
<!-- Clock.Time&#45;&gt;Clock.Millisecond -->
<g id="edge12" class="edge">
<title>Clock.Time&#45;&gt;Clock.Millisecond</title>
<path fill="none" stroke="#000000" d="M835.4624,-207.7011C880.8098,-182.5462 950.7989,-143.3219 1010.7609,-108 1018.7847,-103.2734 1027.1762,-98.2412 1035.4555,-93.2222"/>
<polygon fill="#000000" stroke="#000000" points="1037.2988,-96.1976 1044.0227,-88.0099 1033.6604,-90.2174 1037.2988,-96.1976"/>
</g>
</g>
</svg>
